<?xml version="1.0" encoding="iso-8859-1"?>
<!-- Generator: Adobe Illustrator 19.0.0, SVG Export Plug-In . SVG Version: 6.00 Build 0)  -->
<svg version="1.1" id="Capa_1" xmlns="http://www.w3.org/2000/svg" xmlns:xlink="http://www.w3.org/1999/xlink" x="0px" y="0px"
	 viewBox="0 0 512 512" style="enable-background:new 0 0 512 512;" xml:space="preserve">
<path style="fill:#EDA751;" d="M124.199,452.176c-1.342,0-2.59-0.041-3.732-0.106c-29.851-1.716-55.724-22.43-62.919-50.374
	c-1.986-7.714,2.657-15.577,10.37-17.563c7.711-1.987,15.576,2.657,17.562,10.37c4.038,15.683,19.447,27.782,36.641,28.77
	c25.497,1.479,48.893-20.433,64.126-60.082c2.857-7.435,11.2-11.149,18.635-8.289c7.435,2.856,11.147,11.2,8.29,18.635
	C186.489,442.993,144.489,452.176,124.199,452.176z"/>
<path style="fill:#FCD79D;" d="M85.481,394.503c-1.986-7.714-9.851-12.357-17.562-10.37c-7.714,1.986-12.357,9.85-10.37,17.563
	c0.909,3.531,2.118,6.945,3.594,10.221c8.038-0.97,18.287-4.213,27.295-9.858C87.164,399.663,86.159,397.135,85.481,394.503z"/>
<g>
	<path style="fill:#EDA751;" d="M215.986,504.5c-0.795,0-1.597-0.042-2.404-0.125c-12.676-1.313-21.889-12.652-20.576-25.329
		c2.728-26.355,2.328-49.494-1.224-70.737c-2.102-12.569,6.384-24.463,18.954-26.565c12.575-2.105,24.464,6.385,26.565,18.955
		c4.244,25.384,4.771,52.567,1.61,83.1C237.682,495.668,227.662,504.5,215.986,504.5z"/>
	<path style="fill:#EDA751;" d="M288.69,504.5c-0.795,0-1.597-0.042-2.404-0.125c-12.676-1.313-21.889-12.652-20.576-25.329
		c2.728-26.357,2.328-49.495-1.223-70.737c-2.102-12.569,6.384-24.463,18.954-26.565c12.575-2.105,24.464,6.385,26.565,18.955
		c4.244,25.383,4.771,52.565,1.609,83.1C310.386,495.668,300.366,504.5,288.69,504.5z"/>
	<path style="fill:#EDA751;" d="M111.867,365.538c-18.309,0-36.188-4.169-53.224-12.527c-11.441-5.613-16.166-19.44-10.552-30.88
		c5.614-11.441,19.44-16.164,30.88-10.552c24.243,11.894,49.776,10.365,78.06-4.672c11.253-5.983,25.226-1.71,31.207,9.542
		c5.983,11.253,1.71,25.225-9.542,31.207C156.296,359.566,133.775,365.538,111.867,365.538z"/>
	<path style="fill:#EDA751;" d="M338.436,346.217c-3.424,0-6.72-0.311-9.833-0.958c-12.477-2.595-20.488-14.814-17.893-27.291
		c2.59-12.448,14.755-20.456,27.201-17.912c6.311,0.785,27.514-7.106,36.355-20.658c4.49-6.881,4.331-12.942-0.55-20.917
		c-6.653-10.87-3.234-25.074,7.636-31.728c10.868-6.654,25.075-3.235,31.728,7.636c14.58,23.821,13.984,50.211-1.635,72.402
		C395.414,329.565,363.518,346.217,338.436,346.217z"/>
</g>
<g>
	<path style="opacity:0.2;fill:#A35F00;enable-background:new    ;" d="M313.601,441.64c-0.215-14.266-1.407-27.846-3.596-40.941
		c-2.101-12.57-13.99-21.06-26.565-18.955c-12.57,2.103-21.056,13.996-18.954,26.565c2.515,15.046,3.442,31.049,2.803,48.467
		C283.988,454.609,299.65,449.353,313.601,441.64z"/>
	<path style="opacity:0.2;fill:#A35F00;enable-background:new    ;" d="M210.736,381.744c-12.57,2.103-21.056,13.996-18.954,26.565
		c1.982,11.856,2.981,24.304,3.004,37.57c14.055,6.48,29.572,10.569,45.952,11.695c0.69-20.211-0.447-38.993-3.437-56.875
		C235.199,388.129,223.311,379.639,210.736,381.744z"/>
	<path style="opacity:0.2;fill:#A35F00;enable-background:new    ;" d="M204.883,354.901c-7.435-2.86-15.778,0.854-18.635,8.289
		c-8.991,23.403-20.828,40.621-34.262,50.502c6.319,7.372,13.557,14.019,21.55,19.786c14.083-11.659,28.254-30.313,39.637-59.943
		C216.031,366.101,212.319,357.758,204.883,354.901z"/>
	<path style="opacity:0.2;fill:#A35F00;enable-background:new    ;" d="M157.032,306.907c-10.628,5.65-20.867,9.392-30.795,11.232
		c-1.36,6.957-2.077,14.122-2.077,21.443c0,8.576,0.985,16.939,2.837,25.002c17.081-2.106,34.426-7.744,51.699-16.928
		c11.253-5.982,15.525-19.954,9.542-31.207C182.257,305.197,168.284,300.924,157.032,306.907z"/>
</g>
<ellipse style="fill:#FCD690;" cx="250.01" cy="339.579" rx="106.43" ry="98.9"/>
<path style="opacity:0.15;fill:#C17A00;enable-background:new    ;" d="M234.464,437.429
	c-48.636-31.932-33.563-97.378-25.307-125.999v-63.195c-38.507,14.885-65.583,50.176-65.583,91.347
	C143.574,389.297,183.051,430.438,234.464,437.429z"/>
<path style="fill:#EDA751;" d="M185.236,168.092c20.826-17.475,34.731-46.812,5.356-90.178
	c-29.608-43.709-73.689-54.666-108.104-50.611c-8.484,1-15.603,6.973-18.061,15.155c-9.969,33.188-6.833,78.502,31.071,115.25
	C133.104,194.167,164.409,185.567,185.236,168.092z"/>
<path style="fill:#FF91AB;" d="M63.041,47.535c-8.173,32.631-3.552,75.262,32.456,110.171c32.597,31.602,60.453,29.344,80.86,16.804
	C162.322,79.231,101.011,53.965,63.041,47.535z"/>
<path style="fill:#EDA751;" d="M314.777,168.092c-20.826-17.475-34.732-46.812-5.356-90.178
	c29.608-43.709,73.689-54.666,108.104-50.611c8.484,1,15.603,6.973,18.061,15.155c9.969,33.188,6.833,78.502-31.07,115.25
	C366.908,194.167,335.603,185.567,314.777,168.092z"/>
<path style="fill:#FF91AB;" d="M436.971,47.535c8.173,32.631,3.552,75.262-32.456,110.171
	c-32.596,31.602-60.453,29.344-80.86,16.804C337.69,79.231,399.002,53.965,436.971,47.535z"/>
<path style="fill:#FFDC9C;" d="M431.205,194.468c0,82.849-81.126,119.136-181.199,119.136S68.807,277.317,68.807,194.468
	S149.933,44.456,250.006,44.456S431.205,111.618,431.205,194.468z"/>
<path style="opacity:0.15;fill:#C17A00;enable-background:new    ;" d="M153.255,67.617
	c-50.747,26.584-84.448,73.457-84.448,126.851c0,71.22,59.95,108.031,140.35,116.963C93.744,242.491,108.796,149.761,153.255,67.617
	z"/>
<g>
	<ellipse style="fill:#FF91AB;" cx="161.09" cy="197.959" rx="32.808" ry="26.13"/>
	<ellipse style="fill:#FF91AB;" cx="338.92" cy="197.959" rx="32.808" ry="26.13"/>
	<path style="fill:#FF91AB;" d="M275.041,195.213c0-13.826-11.208-25.035-25.035-25.035c-13.826,0-25.035,11.209-25.035,25.035
		v5.107c0,3.824,3.1,6.923,6.924,6.923h36.223c3.824,0,6.923-3.1,6.923-6.923V195.213z"/>
</g>
<g>
	<path style="fill:#BD4568;" d="M471.182,144.127c-7.638,1.347-14.921-3.753-16.268-11.391l-7.008-39.741
		c-1.347-7.638,3.753-14.921,11.391-16.268c11.254-1.985,18.796-12.755,16.811-24.009c-1.984-11.254-12.755-18.795-24.009-16.811
		c-8.553,1.508-15.312,8.264-16.821,16.811c-1.348,7.638-8.634,12.734-16.269,11.389c-7.638-1.348-12.737-8.632-11.389-16.27
		c3.552-20.129,19.466-36.039,39.602-39.589c26.505-4.674,51.872,13.088,56.545,39.593c3.826,21.701-7.384,42.637-26.121,52.08
		l4.926,27.939C483.92,135.497,478.82,142.78,471.182,144.127z"/>
	<circle style="fill:#BD4568;" cx="476.91" cy="173.019" r="13"/>
	<path style="fill:#BD4568;" d="M29.108,182.649c-7.396-2.692-11.21-10.87-8.518-18.266l14.007-38.484
		c2.692-7.396,10.87-11.21,18.266-8.518c10.898,3.967,22.991-1.673,26.958-12.571c3.966-10.897-1.673-22.99-12.571-26.957
		c-8.282-3.015-17.651-0.507-23.314,6.24c-5.06,6.029-14.05,6.811-20.078,1.754c-6.029-5.06-6.814-14.05-1.754-20.079
		C35.44,49.879,57.5,43.972,76.999,51.069c25.667,9.342,38.948,37.823,29.606,63.49c-7.648,21.014-28.125,33.726-49.384,32.518
		l-9.847,27.054C44.682,181.528,36.504,185.341,29.108,182.649z"/>
	<circle style="fill:#BD4568;" cx="20.712" cy="208.809" r="13.194"/>
</g>
<path d="M191,107.668c-13.847-6.666-30.537-0.827-37.205,13.021c-1.797,3.731-0.229,8.214,3.503,10.011
	c1.049,0.506,2.158,0.745,3.249,0.745c2.791,0,5.471-1.564,6.763-4.248c3.079-6.395,10.788-9.094,17.183-6.013
	c3.731,1.796,8.214,0.228,10.011-3.504C196.301,113.948,194.733,109.465,191,107.668z M379.194,227.756
	c-7.506-5.54-26.832-15.248-37.073-17.967c-4.001-1.059-8.11,1.321-9.173,5.324c-1.063,4.004,1.321,8.111,5.325,9.174
	c8.267,2.194,25.862,10.997,32.013,15.537c1.34,0.989,2.901,1.466,4.448,1.466c2.3,0,4.569-1.054,6.04-3.046
	C383.234,234.911,382.527,230.216,379.194,227.756z M345.875,185.154c-4.106,0.543-6.995,4.313-6.452,8.419
	c0.543,4.105,4.315,6.997,8.418,6.452c8.48-1.125,28.102,0.313,35.518,2.167c0.611,0.152,1.223,0.226,1.825,0.226
	c3.36-0.001,6.418-2.275,7.27-5.683c1.005-4.019-1.438-8.091-5.457-9.096C377.948,185.376,356.379,183.763,345.875,185.154z
	 M152.171,200.025c4.106,0.541,7.876-2.346,8.418-6.452c0.543-4.106-2.346-7.876-6.452-8.419
	c-10.504-1.389-32.072,0.224-41.122,2.485c-4.019,1.005-6.461,5.077-5.457,9.096c0.852,3.407,3.91,5.683,7.27,5.683
	c0.603,0,1.214-0.073,1.825-0.226C124.07,200.337,143.691,198.903,152.171,200.025z M472.484,151.513
	c5.667-0.999,10.606-4.145,13.906-8.858c3.301-4.714,4.568-10.432,3.569-16.099l-4.011-22.746
	c18.911-12.104,29.156-34.871,25.206-57.272c-5.391-30.577-34.653-51.07-65.234-45.677c-12.947,2.283-24.376,8.998-32.672,18.514
	c-32.814-2.466-64.823,8.383-89.083,30.165c-23.137-8.245-48.253-12.584-74.159-12.584c-25.877,0-51.014,4.384-74.127,12.613
	c-25.571-22.985-59.649-33.793-94.268-29.715c-11.478,1.351-21.043,9.377-24.367,20.445c-0.038,0.127-0.074,0.266-0.112,0.394
	c-15.501,0.82-30.42,7.92-40.771,20.254c-3.736,4.45-5.515,10.089-5.009,15.877c0.505,5.789,3.235,11.033,7.686,14.77
	c9.189,7.708,22.935,6.507,30.642-2.678c0.847-1.009,1.827-1.864,2.894-2.568c0.757,8.367,2.392,16.57,4.89,24.537
	c-0.686-0.135-1.368-0.308-2.036-0.552c-5.461-1.988-11.367-1.729-16.632,0.726c-5.266,2.456-9.26,6.815-11.247,12.274
	l-14.007,38.484c-1.987,5.46-1.73,11.366,0.726,16.633c1.984,4.254,5.225,7.657,9.272,9.863c-3.914-0.548-7.907,0.03-11.574,1.74
	c-5.009,2.336-8.81,6.482-10.7,11.677c-1.891,5.194-1.645,10.813,0.691,15.823s6.483,8.81,11.678,10.7
	c2.31,0.841,4.703,1.259,7.09,1.259c2.981,0,5.951-0.652,8.733-1.95c5.01-2.336,8.81-6.482,10.701-11.677
	c1.891-5.194,1.645-10.813-0.691-15.823c-1.861-3.992-4.886-7.197-8.662-9.298c1.06,0.159,2.126,0.255,3.191,0.255
	c3.133,0,6.255-0.686,9.179-2.049c5.266-2.456,9.26-6.815,11.247-12.274l8.042-22.097c1.711-0.076,3.407-0.24,5.088-0.469
	c-4.143,13.098-6.245,26.609-6.245,40.336c0,33.814,12.568,61.816,37.355,83.229c12.114,10.464,26.88,19.089,44.118,25.842
	c-0.273,0.707-0.533,1.417-0.79,2.128c-21.435,8.634-41,8.362-59.716-0.821c-15.136-7.423-33.491-1.152-40.917,13.982
	c-3.598,7.331-4.125,15.625-1.484,23.354c2.641,7.728,8.133,13.966,15.465,17.563c17.978,8.82,36.997,13.293,56.528,13.293
	c9.506,0,19.196-1.098,28.897-3.232c3.446,10.844,8.695,20.968,15.424,30.072c-7.973,8.514-19.442,16.722-33.635,15.909
	c-14.025-0.807-26.561-10.543-29.808-23.152c-1.46-5.671-5.041-10.434-10.084-13.411c-5.043-2.978-10.944-3.813-16.613-2.353
	c-11.706,3.016-18.777,14.992-15.763,26.696c7.999,31.065,36.681,54.091,69.759,55.993c1.38,0.078,2.778,0.117,4.155,0.117
	c13.602,0,38.869-3.887,62.625-28.313c0.896,14.51,0.479,29.93-1.279,46.911c-1.736,16.77,10.494,31.825,27.27,33.563
	c1.061,0.108,2.127,0.164,3.171,0.164c15.704,0,28.766-11.792,30.384-27.429c1.403-13.546,2.071-26.251,2.05-38.609
	c0.528,0.007,1.055,0.019,1.585,0.019c3.361,0,6.687-0.145,9.975-0.413c0.035,10.329-0.531,21.1-1.732,32.705
	c-1.736,16.77,10.494,31.825,27.27,33.563c1.061,0.108,2.127,0.164,3.171,0.164c12.304,0,23.351-7.329,28.141-18.673
	c1.611-3.815-0.175-8.216-3.991-9.827c-3.814-1.609-8.215,0.176-9.827,3.991c-2.439,5.776-8.062,9.509-14.323,9.509
	c-0.533,0-1.085-0.029-1.632-0.085c-8.543-0.885-14.773-8.554-13.889-17.097c1.339-12.929,1.925-24.905,1.797-36.416
	c10.955-2.296,21.317-6.069,30.836-11.084c0.388,8.184,0.442,16.626,0.143,25.233c-0.144,4.14,3.095,7.612,7.235,7.756
	c0.089,0.004,0.177,0.005,0.266,0.005c4.021,0,7.35-3.188,7.491-7.239c0.416-11.958,0.192-23.64-0.66-34.795
	c23.951-17.576,40.195-43.911,43.164-73.787c21.704-6.912,42.1-21.282,54.136-38.384c14.047-19.956,17.264-43.063,9.219-65.427
	c7.865-15.216,11.91-32.395,11.91-51.214c0-18.35-3.727-36.206-10.872-52.976c7.321-10.924,12.191-21.845,15.307-32.332
	l4.387,24.878c0.999,5.668,4.146,10.606,8.859,13.907c3.663,2.564,7.931,3.901,12.311,3.901
	C469.954,151.846,471.221,151.736,472.484,151.513z M137.306,355.21c-8.563,1.868-17.093,2.827-25.439,2.827
	c-17.221,0-34.017-3.956-49.921-11.76c-3.735-1.832-6.533-5.01-7.878-8.946c-1.345-3.937-1.077-8.162,0.756-11.896
	c3.783-7.71,13.135-10.903,20.843-7.123c19.729,9.679,40.047,11.287,61.754,4.838c-0.894,5.396-1.348,10.88-1.348,16.433
	C136.074,344.891,136.498,350.108,137.306,355.21z M403.992,34.023c-1.714,3.957-2.988,8.147-3.757,12.51
	c-0.253,1.433-0.359,2.868-0.326,4.29c-11.913,5.281-22.784,12.094-32.44,20.328c-8.689-5.786-17.904-10.881-27.549-15.252
	C358.2,41.717,380.665,34.045,403.992,34.023z M83.365,34.75c13.655-1.608,46.672-2.347,76.758,21.154
	c-9.679,4.377-18.901,9.482-27.576,15.251c-20.009-17.054-42.183-25.328-59.758-29.326C74.944,37.96,78.846,35.282,83.365,34.75z
	 M120.017,80.267c-1.546,1.228-3.074,2.476-4.575,3.752c-0.801-3.226-1.903-6.4-3.278-9.499
	C114.805,76.284,117.428,78.2,120.017,80.267z M26.062,210.755c-0.52,1.43-1.566,2.57-2.944,3.214
	c-1.379,0.642-2.924,0.711-4.354,0.189c-1.429-0.521-2.57-1.565-3.213-2.944c-0.643-1.378-0.71-2.924-0.19-4.353
	c0.52-1.43,1.565-2.57,2.944-3.214c0.766-0.357,1.582-0.536,2.403-0.536c0.657,0,1.316,0.115,1.951,0.347
	c1.429,0.52,2.57,1.565,3.213,2.944S26.583,209.326,26.062,210.755z M57.646,139.589c-3.306-0.18-6.341,1.813-7.473,4.923
	l-9.847,27.054c-0.617,1.695-1.856,3.048-3.491,3.811c-1.634,0.761-3.468,0.841-5.162,0.225c0,0,0,0-0.001,0
	c-1.694-0.616-3.047-1.856-3.809-3.49c-0.762-1.634-0.842-3.468-0.225-5.162l14.007-38.484c0.617-1.695,1.856-3.048,3.491-3.811
	c0.907-0.423,1.876-0.636,2.849-0.636c0.779,0,1.56,0.137,2.313,0.411c7.154,2.603,14.9,2.262,21.813-0.961
	c6.914-3.225,12.154-8.939,14.757-16.093c2.604-7.153,2.263-14.899-0.961-21.813c-3.224-6.913-8.939-12.153-16.091-14.757
	c-3.276-1.192-6.675-1.729-10.041-1.691c-0.064-0.002-0.126-0.01-0.19-0.01h-0.074c-0.05,0.001-0.099,0.008-0.149,0.009
	c-8.03,0.208-15.819,3.782-21.17,10.157c-2.393,2.851-6.66,3.224-9.512,0.83c-1.381-1.159-2.228-2.787-2.385-4.583
	c-0.157-1.797,0.395-3.547,1.555-4.929c8.662-10.32,21.663-15.67,34.707-14.914c0.021,0.001,0.042,0.003,0.064,0.004
	c3.975,0.237,7.953,1.034,11.813,2.439c10.531,3.833,18.947,11.556,23.699,21.745c2.949,6.324,4.259,13.119,3.915,19.881
	c0,0.005,0,0.009,0,0.014c-0.211,4.129-1.038,8.246-2.49,12.236C93.264,129.285,76.032,140.655,57.646,139.589z M67.649,86.431
	c1.999,1.355,3.613,3.219,4.664,5.471c1.53,3.281,1.694,6.954,0.46,10.343c-0.363,0.997-0.846,1.926-1.414,2.793
	C69.551,98.977,68.31,92.761,67.649,86.431z M124.199,444.676c-1.096,0-2.21-0.031-3.301-0.093
	c-26.632-1.532-49.696-19.936-56.086-44.758c-0.952-3.696,1.281-7.479,4.978-8.431c1.791-0.459,3.651-0.196,5.244,0.743
	c1.593,0.94,2.724,2.444,3.185,4.235c4.829,18.755,23.112,33.217,43.469,34.387c15.886,0.925,31.055-5.761,44.289-19.404
	c3.233,3.298,6.686,6.403,10.335,9.3C156.275,441.38,135.394,444.676,124.199,444.676z M231.451,483.027
	c-0.879,8.498-8.333,14.777-17.096,13.889c-8.543-0.885-14.773-8.554-13.889-17.097c1.619-15.632,2.157-30.054,1.624-43.719
	c9.776,4.25,20.299,7.242,31.332,8.751C233.486,457.037,232.842,469.59,231.451,483.027z M405.309,302.476
	c-9.184,13.049-24.853,24.578-41.559,30.994c-0.619-10.295-2.805-20.324-6.529-29.958c8.9-3.488,17.172-7.473,24.736-11.955
	c13.612-8.065,24.861-17.692,33.662-28.691C417.388,276.594,413.902,290.269,405.309,302.476z M412.14,241.448
	c-0.069,0.117-0.137,0.233-0.199,0.354c-8.247,14.557-20.804,26.88-37.631,36.85c-8.801,5.214-18.677,9.71-29.501,13.472
	c-0.077,0.026-0.153,0.05-0.229,0.079c-26.411,9.142-58.48,13.902-94.574,13.902c-7.515,0-14.982-0.212-22.193-0.63
	c-4.126-0.26-7.682,2.918-7.921,7.054c-0.24,4.135,2.918,7.682,7.053,7.921c7.499,0.435,15.258,0.655,23.061,0.655
	c34.871,0,66.332-4.313,93.046-12.628c3.904,9.941,5.886,20.375,5.886,31.107c0,1.268-0.036,2.527-0.091,3.782
	c-0.001,0.023-0.002,0.046-0.003,0.069c-2.193,48.618-45.684,87.548-98.838,87.548c-54.551,0-98.932-41.002-98.932-91.399
	c0-8.856,1.345-17.509,4.009-25.849c0.049-0.142,0.101-0.284,0.142-0.428c0.524-1.612,1.1-3.211,1.723-4.798
	c10.513,3.262,21.811,5.917,33.876,7.946c0.421,0.07,0.84,0.104,1.253,0.104c3.595,0,6.771-2.594,7.387-6.257
	c0.687-4.085-2.067-7.953-6.152-8.641c-13.565-2.282-26.052-5.376-37.422-9.264c-0.39-0.176-0.787-0.321-1.188-0.426
	c-18.461-6.449-33.944-15.009-46.235-25.626c-21.34-18.434-32.161-42.617-32.161-71.877c0-15.743,3.112-31.182,9.243-45.936
	c12.741-6.415,23.037-17.487,28.103-31.407c1.675-4.604,2.732-9.331,3.19-14.086c5.955-5.834,12.395-11.221,19.261-16.131
	c0.086-0.057,0.17-0.118,0.255-0.179c12.136-8.645,25.577-15.809,39.952-21.341c0.302-0.09,0.597-0.206,0.887-0.336
	c22.505-8.534,47.251-13.096,72.808-13.096c95.778,0,173.699,63.931,173.699,142.512
	C423.705,212.049,419.825,227.734,412.14,241.448z M419.912,125.72c-9.188-15.803-21.608-30.365-36.996-43.104
	c-0.956-0.791-1.923-1.568-2.896-2.34c7.71-6.162,16.232-11.371,25.496-15.525c3.193,3.529,7.428,5.901,12.192,6.743
	c5.386,0.949,10.663-0.205,14.993-2.864C433.75,84.546,431.56,104.895,419.912,125.72z M447.929,74.036
	c-0.142-9.866-1.454-18.53-2.992-25.393c1.978-2.762,4.987-4.738,8.466-5.351c3.473-0.61,6.978,0.169,9.876,2.199
	c2.898,2.029,4.832,5.058,5.443,8.528c0.612,3.47-0.168,6.978-2.198,9.876s-5.059,4.832-8.529,5.444
	C454.223,70.005,450.787,71.639,447.929,74.036z M464.991,135.657c-1.432-1.003-2.387-2.503-2.691-4.225l-7.008-39.741
	c-0.304-1.721,0.081-3.457,1.084-4.889c1.003-1.432,2.502-2.388,4.223-2.691c7.416-1.308,13.884-5.432,18.211-11.612
	c4.328-6.181,5.991-13.669,4.684-21.084c-1.308-7.416-5.432-13.884-11.612-18.212c-4.805-3.364-10.399-5.118-16.136-5.118
	c-1.642,0-3.297,0.145-4.948,0.435c-9.074,1.599-16.648,7.548-20.53,15.599c-0.049,0.098-0.097,0.196-0.142,0.296
	c-1.028,2.198-1.798,4.539-2.232,6.998c-0.627,3.552-4.028,5.932-7.581,5.307c-1.721-0.304-3.221-1.26-4.223-2.691
	c-0.255-0.364-0.468-0.748-0.642-1.145c-0.025-0.071-0.044-0.142-0.071-0.213c-0.021-0.052-0.047-0.101-0.069-0.152
	c-0.393-1.07-0.505-2.227-0.301-3.38c3.006-17.036,16.476-30.501,33.519-33.507c22.433-3.955,43.902,11.077,47.857,33.511
	c3.141,17.81-5.952,35.936-22.11,44.08c-2.956,1.489-4.585,4.74-4.011,8l4.926,27.938c0.304,1.722-0.081,3.458-1.083,4.89
	c-1.003,1.431-2.503,2.387-4.224,2.69C468.161,137.044,466.422,136.659,464.991,135.657z M488.665,156.228
	c-4.486-3.141-9.925-4.351-15.318-3.396c-5.393,0.95-10.093,3.943-13.234,8.43c-3.141,4.485-4.347,9.926-3.396,15.319
	c0.951,5.393,3.945,10.093,8.431,13.233c3.486,2.44,7.547,3.713,11.715,3.713c1.196,0,2.401-0.105,3.604-0.317
	c11.132-1.963,18.592-12.616,16.629-23.749C496.144,164.069,493.15,159.368,488.665,156.228z M477.861,178.439
	c-2.992,0.52-5.846-1.476-6.372-4.462c-0.255-1.447,0.068-2.907,0.911-4.111c0.843-1.203,2.104-2.006,3.551-2.262
	c0.322-0.057,0.642-0.084,0.958-0.084c2.618,0,4.945,1.881,5.415,4.547C482.85,175.053,480.848,177.911,477.861,178.439z
	 M337.426,138.885c0-4.143-3.358-7.5-7.5-7.5H314.01c-4.142,0-7.5,3.357-7.5,7.5s3.358,7.5,7.5,7.5h15.916
	C334.068,146.385,337.426,143.028,337.426,138.885z M157.891,209.789c-10.241,2.719-29.566,12.427-37.073,17.967
	c-3.332,2.46-4.04,7.155-1.58,10.488c1.471,1.992,3.74,3.046,6.04,3.046c1.547,0,3.108-0.477,4.448-1.466
	c6.151-4.54,23.747-13.343,32.013-15.537c4.003-1.063,6.387-5.17,5.325-9.174C166.002,211.111,161.896,208.729,157.891,209.789z
	 M319.801,152.813c-4.142,0-7.5,3.357-7.5,7.5v11.586c0,4.143,3.358,7.5,7.5,7.5s7.5-3.357,7.5-7.5v-11.586
	C327.301,156.17,323.943,152.813,319.801,152.813z M180.211,152.813c-4.142,0-7.5,3.357-7.5,7.5v11.586c0,4.143,3.358,7.5,7.5,7.5
	s7.5-3.357,7.5-7.5v-11.586C187.711,156.17,184.353,152.813,180.211,152.813z M250.006,162.678
	c-17.94,0-32.535,14.595-32.535,32.535v5.106c0,7.953,6.471,14.424,14.424,14.424h36.223c7.953,0,14.423-6.471,14.423-14.424v-5.106
	C282.541,177.273,267.946,162.678,250.006,162.678z M267.541,199.743h-35.07v-4.53c0-9.669,7.866-17.535,17.535-17.535
	c9.668,0,17.535,7.866,17.535,17.535V199.743z"/>
<g>
</g>
<g>
</g>
<g>
</g>
<g>
</g>
<g>
</g>
<g>
</g>
<g>
</g>
<g>
</g>
<g>
</g>
<g>
</g>
<g>
</g>
<g>
</g>
<g>
</g>
<g>
</g>
<g>
</g>
</svg>
