<?xml version="1.0" encoding="iso-8859-1"?>
<!-- Generator: Adobe Illustrator 19.0.0, SVG Export Plug-In . SVG Version: 6.00 Build 0)  -->
<svg version="1.1" id="Capa_1" xmlns="http://www.w3.org/2000/svg" xmlns:xlink="http://www.w3.org/1999/xlink" x="0px" y="0px"
	 viewBox="0 0 512.001 512.001" style="enable-background:new 0 0 512.001 512.001;" xml:space="preserve">
<path style="fill:#EDA751;" d="M170.114,441.65c-6.744,1.112-13.902,0.445-21.433-2.008c-22.974-7.484-52.996-12.578-65.555,5.655
	c-4.065,5.902-12.149,7.392-18.052,3.326c-5.904-4.067-7.394-12.149-3.327-18.053c11.946-17.345,38.121-34.133,94.975-15.613
	c13.282,4.327,19.632-2.353,34.575-27.577c3.755-6.336,7.637-12.889,12.072-19.088c4.173-5.829,12.28-7.173,18.109-3.002
	s7.174,12.28,3.002,18.109c-3.784,5.287-7.376,11.35-10.849,17.213c-6.675,11.266-13.576,22.915-22.878,30.967
	C184.41,437.07,177.511,440.43,170.114,441.65z"/>
<path style="opacity:0.15;fill:#C17A00;enable-background:new    ;" d="M170.114,441.65c-6.744,1.112-13.902,0.445-21.433-2.008
	c-22.974-7.484-52.996-12.578-65.555,5.655c-4.065,5.902-12.149,7.392-18.052,3.326c-5.904-4.067-7.394-12.149-3.327-18.053
	c11.946-17.345,38.121-34.133,94.975-15.613c13.282,4.327,19.632-2.353,34.575-27.577c3.755-6.336,7.637-12.889,12.072-19.088
	c4.173-5.829,12.28-7.173,18.109-3.002s7.174,12.28,3.002,18.109c-3.784,5.287-7.376,11.35-10.849,17.213
	c-6.675,11.266-13.576,22.915-22.878,30.967C184.41,437.07,177.511,440.43,170.114,441.65z"/>
<path style="fill:#FCD79D;" d="M68.201,422.862c-2.514,2.477-4.648,5.086-6.455,7.709c-4.066,5.904-2.576,13.986,3.327,18.053
	c5.904,4.066,13.987,2.576,18.052-3.326c1.306-1.896,2.811-3.527,4.467-4.942C83.717,430.804,74.202,424.634,68.201,422.862z"/>
<g>
	<path style="fill:#EDA751;" d="M366.835,431.222c-9.191,0-17.594-6.147-20.061-15.45c-2.107-7.948-3.757-15.512-5.212-22.186
		c-2.201-10.091-5.525-25.332-8.609-27.825c0.005,0.018-0.115-0.036-0.313-0.083c-11.164-2.63-18.082-13.813-15.451-24.978
		c2.631-11.164,13.814-18.082,24.978-15.45c13.57,3.198,23.766,11.958,30.304,26.035c4.483,9.653,6.888,20.681,9.673,33.451
		c1.43,6.556,2.909,13.336,4.779,20.391c2.939,11.087-3.665,22.457-14.752,25.397C370.389,430.996,368.597,431.222,366.835,431.222z
		"/>
	<path style="fill:#EDA751;" d="M158.04,431.222c-1.762,0-3.552-0.226-5.336-0.699c-11.087-2.94-17.691-14.31-14.752-25.397
		c1.87-7.055,3.349-13.835,4.779-20.391c2.785-12.77,5.19-23.798,9.673-33.451c6.538-14.077,16.734-22.837,30.304-26.035
		c11.163-2.63,22.347,4.286,24.978,15.45c2.631,11.165-4.286,22.348-15.451,24.978c-0.257,0.061-0.359,0.109-0.36,0.11
		c-3.024,2.407-6.357,17.687-8.562,27.798c-1.455,6.674-3.105,14.237-5.212,22.186C175.634,425.075,167.23,431.222,158.04,431.222z"
		/>
	<path style="fill:#EDA751;" d="M230.534,504.5c-11.47,0-20.768-9.298-20.768-20.768v-52.935c0-11.47,9.298-20.768,20.768-20.768
		s20.768,9.298,20.768,20.768v52.935C251.302,495.202,242.004,504.5,230.534,504.5z"/>
	<path style="fill:#EDA751;" d="M294.341,504.5c-11.47,0-20.768-9.298-20.768-20.768v-52.935c0-11.47,9.298-20.768,20.768-20.768
		s20.768,9.298,20.768,20.768v52.935C315.109,495.202,305.811,504.5,294.341,504.5z"/>
</g>
<g>
	<path style="opacity:0.2;fill:#A35F00;enable-background:new    ;" d="M372.471,351.284c-6.538-14.077-16.734-22.837-30.304-26.035
		c-11.164-2.631-22.347,4.286-24.978,15.45c-2.631,11.165,4.286,22.348,15.451,24.978c0.198,0.047,0.318,0.101,0.313,0.083
		c3.084,2.493,6.408,17.734,8.609,27.825c1.455,6.674,3.105,14.237,5.212,22.186c0.96,3.622,2.829,6.757,5.286,9.246
		c14.296-16.546,23.535-37.107,25.48-59.583C376.125,360.413,374.52,355.697,372.471,351.284z"/>
	<path style="opacity:0.2;fill:#A35F00;enable-background:new    ;" d="M182.708,325.249c-13.57,3.198-23.766,11.958-30.304,26.035
		c-2.049,4.412-3.653,9.128-5.069,14.15c1.944,22.477,11.183,43.038,25.48,59.584c2.457-2.489,4.325-5.624,5.286-9.246
		c2.107-7.948,3.757-15.512,5.212-22.186c2.206-10.111,5.538-25.391,8.562-27.798c0.001-0.001,0.103-0.049,0.36-0.11
		c11.164-2.63,18.082-13.813,15.451-24.978C205.055,329.536,193.871,322.619,182.708,325.249z"/>
	<path style="opacity:0.2;fill:#A35F00;enable-background:new    ;" d="M294.341,410.029c-11.47,0-20.768,9.298-20.768,20.768
		v33.941c14.837-1.342,28.865-5.334,41.536-11.473v-22.469C315.109,419.327,305.811,410.029,294.341,410.029z"/>
	<path style="opacity:0.2;fill:#A35F00;enable-background:new    ;" d="M230.534,410.029c-11.47,0-20.768,9.298-20.768,20.768
		v22.469c12.671,6.138,26.699,10.13,41.536,11.473v-33.941C251.302,419.327,242.004,410.029,230.534,410.029z"/>
</g>
<ellipse style="fill:#FCD690;" cx="262.44" cy="356.53" rx="95.79" ry="89.01"/>
<path style="opacity:0.15;fill:#C17A00;enable-background:new    ;" d="M248.45,444.596c-43.773-28.739-30.207-87.64-22.776-113.399
	v-56.876c-34.656,13.397-59.025,45.158-59.025,82.213C166.648,401.276,202.178,438.304,248.45,444.596z"/>
<path style="fill:#EDA751;" d="M203.602,204.798c13.663-20.298,18.388-49.132-17.813-79.328
	c-36.487-30.435-77.34-28.94-106.096-16.868c-7.09,2.976-11.76,9.915-11.849,17.603c-0.362,31.185,13.628,69.597,55.558,91.947
	C165.004,240.326,189.939,225.096,203.602,204.798z"/>
<path style="fill:#FF91AB;" d="M67.911,130.942c1.053,30.256,15.661,65.978,55.492,87.21c36.058,19.22,59.589,10.333,74.119-5.592
	C161.668,133.646,102.351,127.053,67.911,130.942z"/>
<path style="fill:#EDA751;" d="M321.273,204.798c-13.663-20.298-18.388-49.132,17.813-79.328
	c36.487-30.435,77.34-28.94,106.096-16.868c7.089,2.976,11.76,9.915,11.849,17.603c0.362,31.185-13.628,69.597-55.558,91.947
	C359.871,240.326,334.936,225.096,321.273,204.798z"/>
<path style="fill:#FF91AB;" d="M456.965,130.942c-1.053,30.256-15.661,65.978-55.492,87.21
	c-36.058,19.22-59.589,10.333-74.119-5.592C363.208,133.646,422.525,127.053,456.965,130.942z"/>
<path style="fill:#FFDC9C;" d="M425.517,225.93c0-74.564-73.013-135.011-163.079-135.011S99.358,151.366,99.358,225.93
	c0,12.239,1.967,23.349,5.654,33.37c1.871,5.085,3.416,10.284,4.812,15.52c2.736,10.261,5.218,20.489,7.2,28.533
	c0.807,3.273,5.28,3.648,6.658,0.571c1.118-2.499,2.403-5.028,3.766-7.212c0.794-1.272,2.539-1.55,3.68-0.577
	c29.696,25.334,77.452,37.016,131.31,37.016c47.509,0,90.271-9.089,120.077-28.62c3.462-2.268,8.07-1.753,10.907,1.26
	c3.514,3.733,5.761,6.981,7.274,9.761c1.131,2.078,4.254,1.533,4.667-0.796c2.299-12.976,7.645-31.538,11.108-44.122
	c1.243-4.515,2.612-8.986,4.117-13.421C423.803,247.743,425.517,237.329,425.517,225.93z"/>
<path style="opacity:0.15;fill:#C17A00;enable-background:new    ;" d="M99.358,225.93c0,12.239,1.967,23.349,5.654,33.37
	c1.871,5.085,3.416,10.284,4.812,15.519c2.736,10.261,5.217,20.489,7.2,28.533c0.807,3.273,5.28,3.648,6.658,0.571
	c1.118-2.499,2.403-5.028,3.766-7.212c0.794-1.272,2.539-1.55,3.68-0.577c22.72,19.383,56.018,30.766,94.526,35.048
	c-103.85-62.044-90.303-145.495-50.292-219.42C129.689,135.69,99.358,177.875,99.358,225.93z"/>
<path d="M59.889,326.215v-18.487c0-4.143-3.358-7.5-7.5-7.5s-7.5,3.357-7.5,7.5v18.487c0,4.143,3.358,7.5,7.5,7.5
	S59.889,330.357,59.889,326.215z M444.668,35.729c4.142,0,7.5-3.357,7.5-7.5V7.5c0-4.143-3.358-7.5-7.5-7.5s-7.5,3.357-7.5,7.5
	v20.729C437.168,32.372,440.526,35.729,444.668,35.729z M105.377,449.703c-4.142,0-7.5,3.357-7.5,7.5v8.49
	c0,4.143,3.358,7.5,7.5,7.5s7.5-3.357,7.5-7.5v-8.49C112.877,453.06,109.519,449.703,105.377,449.703z M422.914,322.69
	c-4.142,0-7.5,3.357-7.5,7.5v20.339c0,4.143,3.358,7.5,7.5,7.5s7.5-3.357,7.5-7.5V330.19
	C430.414,326.047,427.056,322.69,422.914,322.69z M416.513,428.607c-4.142,0-7.5,3.357-7.5,7.5v25.594c0,4.143,3.358,7.5,7.5,7.5
	s7.5-3.357,7.5-7.5v-25.594C424.013,431.965,420.655,428.607,416.513,428.607z M72.791,84.122c4.142,0,7.5-3.357,7.5-7.5v-32.01
	c0-4.143-3.358-7.5-7.5-7.5s-7.5,3.357-7.5,7.5v32.01C65.291,80.765,68.649,84.122,72.791,84.122z M345.882,64.771
	c4.142,0,7.5-3.357,7.5-7.5V23.29c0-4.143-3.358-7.5-7.5-7.5s-7.5,3.357-7.5,7.5v33.981
	C338.382,61.414,341.74,64.771,345.882,64.771z M180.203,54.686c4.142,0,7.5-3.357,7.5-7.5V7.5c0-4.143-3.358-7.5-7.5-7.5
	s-7.5,3.357-7.5,7.5v39.686C172.703,51.328,176.061,54.686,180.203,54.686z M255.169,71.821c4.142,0,7.5-3.357,7.5-7.5V36.28
	c0-4.143-3.358-7.5-7.5-7.5s-7.5,3.357-7.5,7.5v28.041C247.669,68.464,251.027,71.821,255.169,71.821z M27.815,187.996
	c-4.142,0-7.5,3.357-7.5,7.5v54.067c0,4.143,3.358,7.5,7.5,7.5s7.5-3.357,7.5-7.5v-54.067
	C35.315,191.354,31.957,187.996,27.815,187.996z M211.364,187.75c-1.88,0.326-6.399,0.434-10.552-0.346
	c-4.153-0.777-8.329-2.512-9.967-3.495c-3.552-2.133-8.159-0.979-10.29,2.571c-2.132,3.552-0.98,8.158,2.571,10.29
	c2.229,1.338,5.85,2.94,9.923,4.155c-0.59,1.071-0.927,2.301-0.927,3.611v10.428c0,4.143,3.358,7.5,7.5,7.5s7.5-3.357,7.5-7.5
	v-10.428c0-0.532-0.057-1.051-0.163-1.552c0.184,0.002,0.378,0.012,0.56,0.012c2.513,0,4.745-0.18,6.397-0.465
	c4.082-0.704,6.819-4.585,6.115-8.666C219.326,189.783,215.448,187.051,211.364,187.75z M484.185,48.018c-4.142,0-7.5,3.357-7.5,7.5
	v25.011c0,4.143,3.358,7.5,7.5,7.5s7.5-3.357,7.5-7.5V55.518C491.685,51.375,488.327,48.018,484.185,48.018z M348.622,226.149
	c-4.107,0.543-6.995,4.312-6.453,8.418c0.543,4.107,4.313,6.992,8.418,6.453c7.412-0.98,25.213,0.316,31.686,1.935
	c0.611,0.152,1.222,0.226,1.825,0.226c3.36,0,6.418-2.275,7.271-5.684c1.004-4.019-1.439-8.09-5.458-9.095
	C377.705,226.351,358.148,224.889,348.622,226.149z M179.341,248.341c-9.289,2.466-26.814,11.268-33.619,16.291
	c-3.333,2.46-4.04,7.155-1.58,10.488c1.471,1.992,3.74,3.046,6.04,3.046c1.547,0,3.108-0.476,4.448-1.466
	c5.367-3.961,21.331-11.942,28.559-13.861c4.004-1.063,6.387-5.17,5.325-9.174C187.452,249.662,183.346,247.28,179.341,248.341z
	 M379.152,264.632c-6.804-5.022-24.329-13.825-33.619-16.291c-4.004-1.062-8.11,1.321-9.173,5.324
	c-1.063,4.004,1.321,8.111,5.325,9.174c7.229,1.919,23.193,9.9,28.559,13.861c1.34,0.989,2.901,1.466,4.448,1.466
	c2.299,0,4.569-1.054,6.04-3.046C383.192,271.788,382.485,267.092,379.152,264.632z M341.75,196.77
	c3.552-2.131,4.704-6.737,2.572-10.29c-2.13-3.55-6.738-4.705-10.29-2.571c-1.639,0.983-5.815,2.718-9.968,3.495
	c-4.154,0.777-8.671,0.671-10.553,0.346c-4.076-0.702-7.961,2.033-8.666,6.115c-0.705,4.082,2.033,7.962,6.115,8.666
	c1.652,0.285,3.883,0.465,6.396,0.465c0.181,0,0.376-0.01,0.56-0.012c-0.105,0.501-0.163,1.02-0.163,1.552v10.428
	c0,4.143,3.358,7.5,7.5,7.5s7.5-3.357,7.5-7.5v-10.428c0-1.31-0.337-2.54-0.927-3.611C335.899,199.71,339.52,198.109,341.75,196.77z
	 M284.717,204.816c-3.873-1.471-8.204,0.475-9.675,4.347c-0.873,2.296-1.507,5.398-1.921,8.385h-21.366
	c-0.414-2.986-1.048-6.088-1.921-8.385c-1.471-3.871-5.803-5.816-9.675-4.347c-3.872,1.472-5.818,5.803-4.346,9.675
	c0.813,2.141,1.537,7.687,1.537,10.557c0,2.87-0.724,8.415-1.537,10.556c-1.472,3.872,0.475,8.203,4.346,9.675
	c0.878,0.333,1.777,0.491,2.663,0.491c3.024,0,5.874-1.843,7.012-4.838c0.873-2.296,1.507-5.398,1.921-8.384h21.366
	c0.414,2.986,1.048,6.087,1.921,8.384c1.138,2.995,3.988,4.838,7.012,4.838c0.885,0,1.786-0.158,2.663-0.491
	c3.872-1.472,5.818-5.803,4.346-9.675c-0.814-2.141-1.537-7.686-1.537-10.556s0.724-8.416,1.537-10.557
	C290.535,210.619,288.589,206.288,284.717,204.816z M479.84,351.381c-4.142,0-7.5,3.357-7.5,7.5v33.996c0,4.142,3.358,7.5,7.5,7.5
	s7.5-3.358,7.5-7.5v-33.996C487.34,354.738,483.982,351.381,479.84,351.381z M464.27,225.036c-4.142,0-7.5,3.357-7.5,7.5v34.055
	c0,4.143,3.358,7.5,7.5,7.5s7.5-3.357,7.5-7.5v-34.055C471.77,228.394,468.411,225.036,464.27,225.036z M117.802,359.458v-26.305
	c0-4.143-3.358-7.5-7.5-7.5s-7.5,3.357-7.5,7.5v26.305c0,4.143,3.358,7.5,7.5,7.5S117.802,363.601,117.802,359.458z M174.288,241.02
	c4.104,0.545,7.876-2.346,8.419-6.453c0.542-4.106-2.346-7.875-6.453-8.418c-9.526-1.261-29.084,0.202-37.29,2.253
	c-4.019,1.005-6.462,5.076-5.457,9.095c0.852,3.408,3.91,5.684,7.27,5.684c0.602,0,1.214-0.073,1.825-0.226
	C149.073,241.338,166.876,240.04,174.288,241.02z M464.53,126.118c-0.123-10.7-6.579-20.29-16.445-24.431
	c-30.648-12.867-64.466-11.264-93.472,4.262c-27.248-14.66-58.998-22.53-92.175-22.53c-33.178,0-64.927,7.87-92.175,22.53
	c-29.005-15.526-62.823-17.127-93.471-4.262c-9.866,4.142-16.321,13.731-16.446,24.432c-0.351,30.269,11.701,59.069,33.192,79.707
	c-1.106,6.603-1.68,13.315-1.68,20.104c0,12.831,2.058,24.93,6.115,35.96c1.589,4.321,3.053,9.044,4.604,14.862
	c2.354,8.83,4.569,17.842,6.349,25.082l0.815,3.314c1.144,4.64,4.954,7.913,9.708,8.341c4.698,0.407,9.148-2.19,11.077-6.5
	c0.189-0.422,0.379-0.836,0.57-1.241c9.698,7.41,21.013,13.681,33.871,18.782c-0.043,0.114-0.083,0.229-0.126,0.343
	c-8.086,5.358-14.554,13.161-19.24,23.252c-4.833,10.406-7.319,21.809-10.199,35.013c-1.259,5.773-2.572,11.73-4.135,17.845
	c-43.144-6.846-64.934,9.705-75.698,25.334c-6.406,9.3-4.051,22.077,5.25,28.484c3.54,2.438,7.582,3.606,11.586,3.606
	c6.516-0.001,12.929-3.097,16.896-8.855c10.457-15.184,40.235-8.258,57.056-2.778c8.646,2.816,17.049,3.583,24.977,2.277
	c8.768-1.447,16.952-5.417,24.326-11.799c1.425-1.233,2.817-2.567,4.198-3.993c0.794,0.567,1.595,1.124,2.407,1.67v48.804
	c0,15.587,12.681,28.268,28.268,28.268s28.268-12.681,28.268-28.268v-30.756c1.207,0.039,2.418,0.066,3.635,0.066
	s2.428-0.027,3.636-0.066v30.756c0,15.587,12.681,28.268,28.268,28.268c11.876,0,22.564-7.502,26.594-18.668
	c1.407-3.897-0.612-8.195-4.508-9.602c-3.895-1.405-8.195,0.612-9.601,4.508c-1.892,5.241-6.91,8.762-12.486,8.762
	c-7.316,0-13.268-5.952-13.268-13.268v-32.267c9.342-1.597,18.247-4.373,26.536-8.155v16.515c0,4.143,3.358,7.5,7.5,7.5
	s7.5-3.357,7.5-7.5v-24.898c6.471-4.349,12.384-9.377,17.618-14.975c3.982,11.16,14.606,18.768,26.608,18.768
	c2.44,0,4.882-0.319,7.259-0.949c15.065-3.995,24.073-19.503,20.079-34.568c-1.83-6.901-3.29-13.594-4.701-20.066
	c-2.879-13.204-5.366-24.606-10.198-35.013c-4.687-10.091-11.155-17.894-19.24-23.252c-0.046-0.124-0.09-0.249-0.137-0.372
	c9.792-3.891,18.737-8.459,26.728-13.695c0.429-0.281,1.003-0.226,1.336,0.128c2.684,2.852,4.695,5.535,6.147,8.204
	c2.023,3.718,6.192,5.764,10.375,5.076c4.202-0.685,7.523-3.96,8.265-8.148c1.939-10.942,6.143-26.087,9.52-38.257
	c0.503-1.811,0.984-3.547,1.435-5.183c1.208-4.389,2.55-8.763,3.988-13c3.535-10.414,5.328-21.751,5.328-33.696
	c0-6.789-0.573-13.501-1.679-20.104C452.829,185.187,464.882,156.388,464.53,126.118z M442.279,115.519
	c3.23,1.355,5.627,4.036,6.673,7.256c-15.851-0.775-36.361,0.925-57.23,10.134c-2.92-2.823-5.979-5.569-9.186-8.223
	c-4.036-3.341-8.238-6.493-12.589-9.452C401.964,101.781,430.609,110.618,442.279,115.519z M82.597,115.518
	c11.669-4.897,40.314-13.736,72.332-0.284c-4.352,2.959-8.554,6.111-12.59,9.452c-3.207,2.655-6.266,5.4-9.185,8.223
	c-20.868-9.21-41.379-10.912-57.23-10.135C76.97,119.553,79.368,116.873,82.597,115.518z M97.766,188.497
	c-12.176-14.216-19.792-31.881-21.853-50.699c12.904-0.711,29.38,0.391,46.331,6.845
	C111.078,158.026,102.828,172.824,97.766,188.497z M76.949,441.043c-1.713,2.487-5.131,3.118-7.621,1.405
	c-2.489-1.715-3.12-5.135-1.405-7.623c12.059-17.508,33.037-23.82,62.398-18.808c0.922,4.547,2.952,8.789,5.868,12.352
	C107.6,421.781,87.265,426.066,76.949,441.043z M170.851,413.85c-1.542,5.813-6.81,9.872-12.811,9.872
	c-1.144,0-2.293-0.15-3.413-0.447c-6.123-1.624-10.107-7.301-9.85-13.385c0.002-0.075,0.005-0.151,0.005-0.226
	c0.052-0.868,0.188-1.744,0.419-2.616c1.915-7.223,3.411-14.081,4.857-20.715c2.683-12.302,5.003-22.93,9.118-31.82
	c-0.015,0.673-0.028,1.345-0.028,2.02c0,17.613,5.08,34.137,13.936,48.366C172.324,408.12,171.587,411.073,170.851,413.85z
	 M185.844,425.91c-3.067,2.655-6.293,4.698-9.637,6.151c3.762-3.165,6.725-7.298,8.441-12.107c1.175,1.257,2.386,2.483,3.629,3.682
	C187.47,424.434,186.661,425.203,185.844,425.91z M243.802,483.732c0,7.316-5.952,13.268-13.268,13.268
	c-7.316,0-13.268-5.952-13.268-13.268v-40.421c8.288,3.782,17.194,6.557,26.536,8.155L243.802,483.732L243.802,483.732z
	 M365.727,356.533c0-0.675-0.013-1.349-0.028-2.022c4.114,8.89,6.434,19.519,9.118,31.822c1.446,6.634,2.942,13.492,4.857,20.715
	c1.875,7.071-2.353,14.35-9.423,16.225c-1.122,0.298-2.271,0.448-3.415,0.448c-6.002,0-11.27-4.06-12.812-9.872
	c-0.734-2.771-1.471-5.725-2.233-8.951C360.647,390.67,365.727,374.146,365.727,356.533z M413.485,254.804
	c-1.532,4.515-2.961,9.172-4.246,13.842c-0.448,1.625-0.927,3.351-1.426,5.151c-2.435,8.773-5.289,19.055-7.486,28.435
	c-0.466-0.525-0.947-1.052-1.445-1.58c-5.332-5.665-13.944-6.672-20.479-2.394c-8.84,5.793-19.021,10.698-30.38,14.691
	c-0.349,0.091-0.693,0.215-1.034,0.36c-23.585,8.124-52.192,12.344-84.552,12.344c-6.388,0-12.743-0.171-18.889-0.507
	c-4.128-0.244-7.672,2.941-7.899,7.078c-0.227,4.136,2.943,7.673,7.079,7.899c6.418,0.351,13.049,0.529,19.709,0.529
	c31.256,0,59.366-3.817,83.303-11.186c3.311,8.661,4.986,17.738,4.986,27.066c0,44.944-39.606,81.51-88.289,81.51
	s-88.289-36.565-88.289-81.51c0-9.325,1.674-18.4,4.984-27.059c9.047,2.774,18.721,5.059,29.026,6.829
	c4.083,0.706,7.961-2.039,8.661-6.122c0.701-4.082-2.04-7.96-6.122-8.661c-11.852-2.036-22.776-4.768-32.742-8.179
	c-0.346-0.151-0.697-0.278-1.052-0.374c-16.294-5.695-29.992-13.223-40.907-22.535c-2.203-1.879-5.109-2.703-7.975-2.263
	c-2.426,0.375-4.608,1.623-6.154,3.488c-1.449-5.85-3.083-12.34-4.796-18.77c-1.673-6.274-3.268-11.414-5.02-16.177
	c-3.446-9.366-5.193-19.723-5.193-30.781c0-70.31,69.793-127.511,155.58-127.511s155.58,57.201,155.58,127.511
	C418.017,236.231,416.493,245.946,413.485,254.804z M427.109,188.497c-5.062-15.672-13.312-30.471-24.477-43.854
	c16.951-6.454,33.427-7.555,46.331-6.845C446.9,156.616,439.285,174.281,427.109,188.497z"/>
<g>
</g>
<g>
</g>
<g>
</g>
<g>
</g>
<g>
</g>
<g>
</g>
<g>
</g>
<g>
</g>
<g>
</g>
<g>
</g>
<g>
</g>
<g>
</g>
<g>
</g>
<g>
</g>
<g>
</g>
</svg>
