<?xml version="1.0" encoding="iso-8859-1"?>
<!-- Generator: Adobe Illustrator 19.0.0, SVG Export Plug-In . SVG Version: 6.00 Build 0)  -->
<svg version="1.1" id="Capa_1" xmlns="http://www.w3.org/2000/svg" xmlns:xlink="http://www.w3.org/1999/xlink" x="0px" y="0px"
	 viewBox="0 0 512 512" style="enable-background:new 0 0 512 512;" xml:space="preserve">
<circle style="fill:#7CC5E6;" cx="36.298" cy="291.26" r="19.976"/>
<path style="fill:#EDA751;" d="M311.639,473.042c-10.185,0-19.825-2.884-29.111-8.667c-12.983-8.085-23.045-20.406-33.696-33.449
	l-0.775-0.949c-4.784-5.857-3.915-14.482,1.942-19.267c5.856-4.785,14.483-3.915,19.267,1.942l0.778,0.953
	c21.129,25.874,32.301,37.927,55.201,29.199c46.656-17.772,88.222-18.712,114.043-2.573c6.413,4.007,8.362,12.455,4.354,18.868
	c-4.008,6.413-12.456,8.362-18.868,4.354c-18.213-11.384-51.776-9.536-89.78,4.942C326.867,471.491,319.107,473.042,311.639,473.042
	z"/>
<path style="fill:#FCD79D;" d="M439.288,440.231c-3.288-2.055-6.835-3.83-10.612-5.332c-4.337,4.676-10.392,13.276-10.825,25.144
	c2.498,0.963,4.817,2.094,6.922,3.41c6.412,4.008,14.861,2.059,18.868-4.354C447.65,452.686,445.701,444.238,439.288,440.231z"/>
<path style="fill:#EDA751;" d="M101.063,407.641c-22.743,0-51.228-5.059-72.08-25.911c-8.556-8.556-8.556-22.428,0-30.984
	c8.556-8.554,22.427-8.554,30.983,0c7.276,7.277,30.61,18.782,66.839,10.241c11.776-2.773,23.574,4.522,26.349,16.298
	c2.776,11.778-4.522,23.575-16.299,26.35C131.882,404.806,118.078,407.641,101.063,407.641z"/>
<path style="opacity:0.2;fill:#A35F00;enable-background:new    ;" d="M126.804,360.987c-12.419,2.928-23.321,3.499-32.582,2.694
	c-2.836,9.654-4.358,19.816-4.358,30.308c0,4.494,0.287,8.926,0.828,13.286c3.552,0.253,7.025,0.367,10.371,0.367
	c17.016,0,30.82-2.835,35.792-4.006c11.777-2.775,19.074-14.572,16.299-26.35C150.378,365.508,138.58,358.214,126.804,360.987z"/>
<ellipse style="fill:#FCD690;" cx="210.908" cy="393.99" rx="101.05" ry="93.9"/>
<path style="opacity:0.15;fill:#C17A00;enable-background:new    ;" d="M196.154,486.885
	c-46.176-30.316-31.865-92.451-24.027-119.624v-59.998c-36.559,14.133-62.265,47.638-62.265,86.726
	C109.863,441.188,147.343,480.247,196.154,486.885z"/>
<path style="fill:#EDA751;" d="M149.417,231.173c19.773-16.591,32.974-44.443,5.085-85.616
	c-28.11-41.498-69.961-51.9-102.635-48.051c-8.055,0.949-14.814,6.62-17.147,14.388c-9.464,31.509-6.488,74.53,29.499,109.419
	C99.923,255.929,129.645,247.765,149.417,231.173z"/>
<path style="fill:#FF91AB;" d="M33.405,116.716c-7.759,30.98-3.372,71.455,30.814,104.598c30.947,30.004,57.394,27.86,76.77,15.954
	C127.662,146.809,69.452,122.821,33.405,116.716z"/>
<path style="fill:#EDA751;" d="M272.405,231.173c-19.773-16.591-32.974-44.443-5.085-85.616
	c28.11-41.498,69.961-51.9,102.635-48.051c8.055,0.949,14.814,6.62,17.147,14.388c9.464,31.509,6.488,74.53-29.499,109.419
	C321.898,255.929,292.177,247.765,272.405,231.173z"/>
<path style="fill:#FF91AB;" d="M388.417,116.716c7.759,30.98,3.372,71.455-30.814,104.598c-30.947,30.004-57.394,27.86-76.77,15.954
	C294.159,146.809,352.368,122.821,388.417,116.716z"/>
<path style="fill:#FFDC9C;" d="M382.943,256.215c0,78.658-77.021,113.109-172.032,113.109S38.879,334.873,38.879,256.215
	S115.9,113.792,210.91,113.792S382.943,177.557,382.943,256.215z"/>
<path style="opacity:0.15;fill:#C17A00;enable-background:new    ;" d="M119.054,135.782c-48.18,25.239-80.175,69.74-80.175,120.433
	c0,67.617,56.917,102.566,133.25,111.045C62.555,301.809,76.844,213.77,119.054,135.782z"/>
<g>
	<ellipse style="fill:#FF91AB;" cx="100.188" cy="241.65" rx="31.15" ry="24.805"/>
	<ellipse style="fill:#FF91AB;" cx="269.017" cy="241.65" rx="31.15" ry="24.805"/>
</g>
<g>
	<path style="fill:#495059;" d="M118.339,224.401c-4.142,0-7.5-3.357-7.5-7.5v-11c0-4.143,3.358-7.5,7.5-7.5s7.5,3.357,7.5,7.5v11
		C125.839,221.044,122.48,224.401,118.339,224.401z"/>
	<path style="fill:#495059;" d="M250.867,224.401c-4.142,0-7.5-3.357-7.5-7.5v-11c0-4.143,3.358-7.5,7.5-7.5s7.5,3.357,7.5,7.5v11
		C258.367,221.044,255.009,224.401,250.867,224.401z"/>
</g>
<ellipse style="fill:#FF91AB;" cx="184.598" cy="225.35" rx="16.69" ry="22.671"/>
<g>
	<path style="fill:#495059;" d="M56.264,246.256c-3.36,0-6.418-2.275-7.27-5.683c-1.005-4.018,1.438-8.091,5.457-9.096
		c8.621-2.155,29.169-3.692,39.184-2.368c4.106,0.543,6.995,4.311,6.453,8.418c-0.543,4.107-4.305,7.001-8.418,6.453
		c-7.858-1.036-26.723,0.334-33.579,2.05C57.479,246.183,56.866,246.256,56.264,246.256z"/>
	<path style="fill:#495059;" d="M66.186,283.162c-2.299,0-4.569-1.054-6.04-3.045c-2.46-3.333-1.753-8.028,1.579-10.489
		c7.15-5.278,25.565-14.528,35.326-17.119c4.003-1.061,8.11,1.321,9.173,5.325c1.063,4.003-1.321,8.11-5.325,9.173
		c-7.661,2.033-24.579,10.491-30.265,14.689C69.293,282.685,67.732,283.162,66.186,283.162z"/>
	<path style="fill:#495059;" d="M312.943,246.256c-0.603,0-1.214-0.073-1.826-0.226c-6.855-1.715-25.72-3.09-33.579-2.05
		c-4.112,0.546-7.875-2.347-8.418-6.453s2.346-7.875,6.453-8.418c10.014-1.325,30.563,0.213,39.184,2.368
		c4.018,1.006,6.461,5.078,5.456,9.096C319.361,243.981,316.302,246.256,312.943,246.256z"/>
	<path style="fill:#495059;" d="M303.021,283.162c-1.548,0-3.108-0.477-4.449-1.466c-5.686-4.198-22.603-12.656-30.265-14.689
		c-4.004-1.063-6.388-5.17-5.325-9.173c1.063-4.003,5.173-6.385,9.173-5.325c9.761,2.591,28.176,11.841,35.326,17.119
		c3.332,2.461,4.039,7.156,1.579,10.489C307.59,282.108,305.319,283.162,303.021,283.162z"/>
</g>
<path style="fill:#7CC5E6;" d="M355.194,434.361c-2.061-0.3-3.615-1.985-3.835-4.056c-3.24-30.499-29.042-54.26-60.4-54.26
	c-3.84,0-7.592,0.367-11.233,1.053c-1.628,0.307-3.299-0.296-4.334-1.59c-15.091-18.875-38.312-30.967-64.357-30.967
	c-29.941,0-56.138,15.986-70.553,39.881c-0.9,1.493-2.59,2.305-4.325,2.132c-1.976-0.197-3.98-0.299-6.008-0.299
	c-24.113,0-44.939,14.052-54.751,34.411c-0.697,1.446-2.102,2.412-3.699,2.568c-22.448,2.194-40.007,21.061-40.113,44.06
	C31.472,491.884,52.243,512,76.833,512h271.954c21.656,0,39.733-17.327,39.757-38.983
	C388.565,453.372,374.07,437.111,355.194,434.361z"/>
<g style="opacity:0.1;">
	<path d="M152.516,469.333c-3.098,0-5.997-1.935-7.079-5.023c-2.024-5.781-7.503-9.666-13.634-9.666
		c-5.817,0-11.041,3.463-13.308,8.821c-1.614,3.814-6.015,5.598-9.83,3.985s-5.599-6.014-3.986-9.829
		c4.62-10.921,15.266-17.978,27.123-17.978c12.496,0,23.664,7.921,27.791,19.709c1.369,3.91-0.691,8.188-4.601,9.558
		C154.173,469.197,153.337,469.333,152.516,469.333z"/>
	<path d="M211.583,415.603c-3.08,0-5.967-1.912-7.063-4.979c-1.564-4.379-5.01-7.655-9.456-8.989
		c-5.572-1.674-11.571,0.143-15.282,4.625c-2.644,3.189-7.371,3.633-10.56,0.992c-3.19-2.643-3.635-7.37-0.993-10.561
		c7.564-9.133,19.788-12.834,31.146-9.424c8.928,2.679,16.132,9.524,19.27,18.311c1.393,3.9-0.64,8.192-4.54,9.586
		C213.272,415.462,212.421,415.603,211.583,415.603z"/>
	<path d="M258.991,472.065c-3.232,0-6.216-2.105-7.185-5.361c-3.646-12.247-0.303-25.463,8.725-34.49
		c6.559-6.559,15.279-10.171,24.555-10.171c9.275,0,17.996,3.612,24.555,10.171c2.929,2.93,2.929,7.678,0,10.607
		c-2.929,2.928-7.678,2.928-10.606,0c-3.726-3.727-8.68-5.778-13.949-5.778s-10.223,2.052-13.949,5.777
		c-5.129,5.13-7.028,12.641-4.955,19.603c1.182,3.971-1.078,8.146-5.048,9.329C260.419,471.964,259.699,472.065,258.991,472.065z"/>
</g>
<path style="fill:#495059;" d="M402.371,65.749l-23.237-23.237l37.7-37.7C419.917,1.731,424.095,0,428.453,0h61.73
	c3.034,0,5.495,2.46,5.495,5.495v21.873c0,3.035-2.46,5.495-5.495,5.495h-54.924L402.371,65.749z"/>
<path style="fill:#DEE2E5;" d="M409.309,116.314L328.57,35.575l6.661-3.767c22.341-12.634,50.365-8.817,68.514,9.331l0,0
	c18.148,18.148,21.965,46.173,9.331,68.514L409.309,116.314z"/>
<path style="fill:#495059;" d="M393.819,135.779l-84.713-84.713c-4.826-4.826-4.826-12.651,0-17.477l0,0
	c4.826-4.826,12.651-4.826,17.477,0l84.713,84.713c4.826,4.826,4.826,12.651,0,17.477l0,0
	C406.469,140.605,398.646,140.605,393.819,135.779z"/>
<g>
	<path style="fill:#7CC5E6;" d="M266.298,104.264c-1.926,0-3.852-0.737-5.317-2.211c-2.921-2.936-2.909-7.684,0.028-10.606
		c4.715-4.69,19.523-15.108,22.882-17.348c3.446-2.297,8.103-1.366,10.4,2.08c2.298,3.446,1.367,8.103-2.08,10.4
		c-5.231,3.487-17.537,12.432-20.623,15.502C270.125,103.536,268.211,104.264,266.298,104.264z"/>
	<path style="fill:#7CC5E6;" d="M339.594,200.618c-0.793,0-1.599-0.127-2.393-0.394c-3.926-1.32-6.038-5.574-4.717-9.5
		c2.747-8.164,14.599-31.295,23.028-37.271c3.378-2.396,8.06-1.599,10.456,1.78s1.599,8.061-1.78,10.456
		c-3.752,2.66-14.539,21.053-17.487,29.818C345.648,198.641,342.727,200.618,339.594,200.618z"/>
	<path style="fill:#7CC5E6;" d="M269,170.46c-1.353,0-2.722-0.366-3.955-1.133c-3.517-2.188-4.594-6.813-2.405-10.331
		c2.589-4.16,8.475-12.629,14.112-17.977c3.005-2.851,7.753-2.727,10.603,0.279c2.851,3.005,2.726,7.752-0.279,10.604
		c-3.772,3.578-8.742,10.265-11.701,15.021C273.953,169.205,271.504,170.46,269,170.46z"/>
</g>
<path style="fill:#EDA751;" d="M305.839,398.905c-1.626,0-3.278-0.183-4.93-0.563c-36.223-8.331-62.591-37.339-69.809-46.032
	c-7.73-9.308-6.45-23.12,2.858-30.85c9.306-7.731,23.12-6.453,30.851,2.857c9.831,11.839,27.757,27.146,45.922,31.323
	c11.792,2.712,19.152,14.469,16.44,26.261C324.837,392.042,315.816,398.905,305.839,398.905z"/>
<g>
	<circle style="fill:#7CC5E6;" cx="383.908" cy="358.29" r="19.976"/>
	<circle style="fill:#7CC5E6;" cx="419.047" cy="284.54" r="14.07"/>
</g>
<g>
</g>
<g>
</g>
<g>
</g>
<g>
</g>
<g>
</g>
<g>
</g>
<g>
</g>
<g>
</g>
<g>
</g>
<g>
</g>
<g>
</g>
<g>
</g>
<g>
</g>
<g>
</g>
<g>
</g>
</svg>
