<?xml version="1.0" encoding="iso-8859-1"?>
<!-- Generator: Adobe Illustrator 19.0.0, SVG Export Plug-In . SVG Version: 6.00 Build 0)  -->
<svg version="1.1" id="Layer_1" xmlns="http://www.w3.org/2000/svg" xmlns:xlink="http://www.w3.org/1999/xlink" x="0px" y="0px"
	 viewBox="0 0 511.999 511.999" style="enable-background:new 0 0 511.999 511.999;" xml:space="preserve">
<path style="fill:#F7DA70;" d="M145.217,334.177c-75.723,0-137.326-61.605-137.326-137.326c0-34.04,12.548-66.698,35.332-91.956
	c6.289-6.972,17.042-7.527,24.015-1.236s7.527,17.043,1.236,24.016c-17.137,18.999-26.576,43.566-26.576,69.178
	c0,56.97,46.349,103.319,103.319,103.319c9.391,0,17.004,7.613,17.004,17.004C162.221,326.564,154.608,334.177,145.217,334.177z"/>
<path style="opacity:0.1;enable-background:new    ;" d="M145.217,300.17c-13.536,0-26.469-2.621-38.326-7.375
	c-10.694,6.117-19.724,14.799-26.252,25.22c19.262,10.307,41.248,16.163,64.579,16.163c9.391,0,17.004-7.613,17.004-17.004
	C162.221,307.782,154.608,300.17,145.217,300.17z"/>
<path style="fill:#F7DA70;" d="M318.976,487.704L318.976,487.704c-15.319,0-27.738-12.419-27.738-27.738V357.507h55.476v102.458
	C346.713,475.285,334.296,487.704,318.976,487.704z"/>
<path style="fill:#7D7060;" d="M346.713,439.613c-20.471,0-37.067-16.596-37.067-37.067s16.596-37.067,37.067-37.067V439.613z"/>
<path style="opacity:0.08;enable-background:new    ;" d="M318.976,487.704L318.976,487.704c-15.319,0-27.738-12.419-27.738-27.738
	V357.507h55.476v102.458C346.713,475.285,334.296,487.704,318.976,487.704z"/>
<path style="fill:#F7DA70;" d="M287.54,282.989H175.582c-41.154,0-74.517,33.363-74.517,74.517v102.458
	c0,15.319,12.419,27.738,27.738,27.738s27.738-12.419,27.738-27.738v-30.406c6.079,1.602,12.459,2.465,19.042,2.465h35.369v27.941
	c0,15.319,12.419,27.738,27.738,27.738l0,0c15.319,0,27.738-12.419,27.738-27.738v-27.979c46.699-0.818,84.31-38.904,84.31-85.799
	l0,0C350.738,311.284,322.443,282.989,287.54,282.989z"/>
<path style="fill:#7D7060;" d="M101.407,350.447c-0.219,2.325-0.342,4.678-0.342,7.059v61c18.797,0,34.034-15.237,34.034-34.034
	C135.099,365.79,120.045,350.632,101.407,350.447z"/>
<path style="opacity:0.08;enable-background:new    ;" d="M287.54,282.989H175.582c-19.769,0-37.725,7.712-51.063,20.274
	c21.421,38.655,64.861,65.616,115.849,65.616h107.314c1.978-7.231,3.054-14.833,3.054-22.691l0,0
	C350.738,311.284,322.443,282.989,287.54,282.989z"/>
<path style="fill:#F7DA70;" d="M458.617,25.458l-0.008,0.002c-32.398,8.26-63.994,19.387-94.424,33.229
	c-16.888-4.502-34.689-6.911-53.038-6.911l0,0c-18.348,0-36.151,2.409-53.038,6.911c-30.429-13.843-62.025-24.969-94.424-33.229
	l-0.009-0.002c-23.842-6.079-46.741,12.707-45.44,37.277l0,0c1.81,34.153,6.721,68.068,14.661,101.333
	c-5.703,13.395-9.725,27.621-11.793,42.479l0,0c-10.026,72.058,50.58,135.881,129.035,135.881h122.014
	c78.454,0,139.061-63.823,129.035-135.881l0,0c-2.067-14.856-6.089-29.083-11.793-42.478c7.94-33.265,12.85-67.181,14.66-101.333
	l0,0C505.358,38.166,482.459,19.379,458.617,25.458z"/>
<path style="fill:#EDBCB9;" d="M283.733,224.886v54.418c0,15.14,12.273,27.413,27.413,27.413c15.14,0,27.413-12.274,27.413-27.413
	v-54.418L283.733,224.886z"/>
<path style="opacity:0.1;enable-background:new    ;" d="M311.146,281.569c-4.359,0-7.891-3.533-7.891-7.891V228.67
	c0-4.358,3.532-7.891,7.891-7.891s7.891,3.533,7.891,7.891v45.008C319.036,278.036,315.504,281.569,311.146,281.569z"/>
<path style="fill:#F7DA70;" d="M357.03,263.661c-35.564,0-45.884-25.347-45.884-36.197c0,10.85-10.32,36.197-45.883,36.197
	l-22.002-63.523h135.771L357.03,263.661z"/>
<path style="fill:#F4B759;" d="M446.962,65.346l-0.004,0.001c-14.936,3.809-29.492,8.978-43.483,15.447
	c-6.572,3.038-8.38,11.54-3.612,16.989l0,0c12.79,14.617,27.908,27.019,44.741,36.706c6.276,3.612,14.261,0.178,15.956-6.862
	l0.001-0.005c3.609-14.985,5.836-30.27,6.651-45.663C467.794,71.01,457.588,62.637,446.962,65.346z"/>
<path style="fill:#7D7060;" d="M163.684,25.461l-0.009-0.002c-14.977-3.819-29.578,2.178-38.045,13.253
	c5.872,26.642,29.608,46.58,58.014,46.58c24.231,0,45.06-14.511,54.308-35.31C213.801,40.108,188.987,31.911,163.684,25.461z"/>
<path style="fill:#F4B759;" d="M155.079,81.961L155.079,81.961c0.815,15.392,3.043,30.677,6.651,45.663l0.001,0.004
	c1.696,7.039,9.68,10.473,15.956,6.862l0,0c16.834-9.687,31.952-22.09,44.742-36.706l0,0c4.768-5.449,2.961-13.951-3.612-16.989l0,0
	c-13.991-6.468-28.546-11.639-43.483-15.447l-0.004-0.001C164.705,62.637,154.499,71.01,155.079,81.961z"/>
<path style="fill:#4A5058;" d="M338.585,216.392l-6.387,7.607c-10.986,13.084-31.12,13.084-42.105,0l-6.387-7.607
	c-3.291-3.919-0.504-9.897,4.612-9.897h45.653C339.09,206.496,341.876,212.473,338.585,216.392z"/>
<path d="M357.029,255.771c-20.043,0-29.549-8.859-33.977-16.135c5.841-2.084,11.096-5.688,15.19-10.562l6.386-7.607
	c3.516-4.187,4.266-9.869,1.955-14.825c-2.31-4.956-7.143-8.036-12.611-8.036h-45.653c-5.469,0-10.301,3.079-12.611,8.036
	c-2.31,4.956-1.56,10.638,1.955,14.825l6.387,7.607c4.094,4.875,9.349,8.478,15.19,10.563c-4.429,7.277-13.936,16.135-33.978,16.135
	c-4.359,0-7.891,3.533-7.891,7.891s3.532,7.891,7.891,7.891c3.743,0,7.263-0.263,10.581-0.741v8.492
	c0,19.467,15.837,35.304,35.304,35.304s35.304-15.837,35.304-35.304v-8.492c3.317,0.478,6.836,0.741,10.581,0.741
	c4.359,0,7.891-3.533,7.891-7.891C364.92,259.303,361.388,255.771,357.029,255.771z M296.137,218.924l-3.811-4.539h37.64
	l-3.81,4.538c-3.734,4.446-9.205,6.996-15.011,6.996C305.34,225.921,299.868,223.371,296.137,218.924z M330.668,279.304
	c0,10.765-8.758,19.522-19.522,19.522c-10.764,0-19.522-8.758-19.522-19.522v-12.988c8.618-3.893,15.052-9.612,19.522-16.004
	c4.47,6.392,10.905,12.112,19.522,16.004V279.304z M450.624,228.713l-44.073-5.324c-4.317-0.524-8.258,2.561-8.781,6.887
	c-0.522,4.326,2.562,8.258,6.888,8.78l44.073,5.324c0.322,0.039,0.64,0.058,0.956,0.058c3.935,0,7.34-2.941,7.824-6.946
	C458.033,233.165,454.95,229.235,450.624,228.713z M466.295,62.43c-6.003-4.924-13.76-6.648-21.287-4.729
	c-15.364,3.917-30.452,9.276-44.845,15.931c-5.411,2.502-9.226,7.281-10.465,13.112c-1.239,5.832,0.301,11.75,4.227,16.236
	c13.391,15.303,29.117,28.205,46.744,38.348c2.906,1.672,6.106,2.516,9.326,2.516c2.507,0,5.025-0.511,7.423-1.543
	c5.476-2.355,9.418-7.03,10.814-12.826c0.002-0.011,0.004-0.021,0.007-0.032c3.709-15.406,6.015-31.24,6.853-47.064
	C475.504,74.625,472.297,67.355,466.295,62.43z M452.892,125.775c-0.002,0.007-0.004,0.016-0.006,0.023
	c-0.306,1.239-1.197,1.787-1.702,2.005c-0.506,0.218-1.524,0.488-2.643-0.154c-16.116-9.274-30.495-21.071-42.738-35.063
	c-0.849-0.969-0.782-2.021-0.668-2.562c0.115-0.541,0.483-1.529,1.652-2.069c13.519-6.249,27.69-11.284,42.125-14.964
	c0.698-0.179,1.4-0.266,2.097-0.266c1.904,0,3.753,0.655,5.276,1.904c2.081,1.706,3.191,4.226,3.049,6.912
	C458.547,96.416,456.378,111.297,452.892,125.775z M495.771,26.502c-11.028-9.047-25.283-12.215-39.103-8.691
	c-0.026,0.006-0.053,0.014-0.079,0.021c-31.796,8.111-63.109,19.047-93.117,32.521c-17.016-4.291-34.605-6.465-52.325-6.465
	c-17.72,0-35.308,2.174-52.323,6.465c-30.006-13.473-61.319-24.409-93.116-32.52c-0.026-0.007-0.054-0.015-0.081-0.021
	c-13.821-3.523-28.075-0.357-39.103,8.691s-16.921,22.406-16.165,36.65c1.783,33.662,6.585,67.374,14.272,100.239
	c-5.523,13.527-9.335,27.665-11.339,42.067c-4.047,29.083,2.443,57.725,18.356,82.338c-1.416,0.897-2.802,1.836-4.154,2.813
	c-21.027-3.972-40.25-15.012-54.407-31.354c-15.022-17.338-23.295-39.501-23.295-62.406c0-23.655,8.717-46.346,24.543-63.892
	c9.195-10.193,8.384-25.964-1.81-35.161c-4.937-4.453-11.316-6.714-17.955-6.377c-6.642,0.342-12.751,3.25-17.205,8.187
	C13.269,126.319,0,160.854,0,196.851c0,32.023,10.262,62.41,29.676,87.874c17.094,22.422,40.69,39.578,67.072,48.981
	c-2.327,7.628-3.574,15.637-3.574,23.801v102.458c0,19.646,15.983,35.629,35.629,35.629s35.628-15.983,35.628-35.629v-20.806
	c3.691,0.503,7.417,0.755,11.151,0.755h27.478v20.051c0,19.646,15.982,35.629,35.629,35.629c19.646,0,35.628-15.982,35.628-35.629
	v-20.542c3.046-0.303,6.056-0.767,9.03-1.358v21.9c0,19.646,15.982,35.629,35.628,35.629c19.647,0,35.629-15.983,35.629-35.629
	v-86.503c2.256-7.447,3.58-15.209,3.923-23.143h13.624c41.834,0,80.933-17.354,107.272-47.612
	c23.969-27.535,34.474-62.072,29.578-97.248c-2.004-14.401-5.816-28.539-11.339-42.065c7.688-32.865,12.487-66.577,14.272-100.24
	C512.691,48.909,506.798,35.55,495.771,26.502z M102.771,319.104c-23.816-8.321-45.137-23.737-60.544-43.948
	c-17.302-22.691-26.445-49.77-26.445-78.306c0-32.085,11.826-62.865,33.301-86.672c1.63-1.806,3.866-2.871,6.297-2.996
	c2.437-0.125,4.766,0.704,6.573,2.334c3.731,3.367,4.028,9.141,0.662,12.871c-18.447,20.45-28.607,46.896-28.607,74.462
	c0,26.701,9.641,52.535,27.149,72.741c13.974,16.128,32.193,27.831,52.345,33.847C109.341,308.239,105.736,313.497,102.771,319.104z
	 M338.824,459.965c0,10.944-8.904,19.848-19.848,19.848c-10.943,0-19.847-8.904-19.847-19.848v-26.52
	c12.113-4.744,23.207-12.012,32.59-21.546c2.545-2.586,4.901-5.308,7.105-8.126v56.192H338.824z M320.47,400.83
	c-14.411,14.644-33.653,22.906-54.181,23.266c-4.304,0.076-7.753,3.585-7.753,7.89v27.98c0,10.944-8.904,19.848-19.847,19.848
	c-10.944,0-19.848-8.904-19.848-19.848v-27.941c0-4.358-3.532-7.891-7.891-7.891h-35.369c-5.753,0-11.482-0.742-17.029-2.204
	c-2.366-0.624-4.888-0.115-6.828,1.379c-1.939,1.494-3.074,3.803-3.074,6.25v30.406c0,10.944-8.904,19.848-19.847,19.848
	c-10.944,0-19.848-8.904-19.848-19.848V357.507c0-23.636,12.143-44.935,32.07-56.973c0.607,0.728,1.217,1.454,1.843,2.172
	c26.339,30.259,65.438,47.612,107.272,47.612h92.594C341.742,369.349,333.929,387.154,320.47,400.83z M496.177,62.319
	c-1.779,33.57-6.643,67.187-14.456,99.919c-0.392,1.642-0.246,3.369,0.416,4.923c5.525,12.975,9.305,26.592,11.236,40.475
	c4.257,30.586-4.924,60.671-25.85,84.711c-23.342,26.813-58.102,42.193-95.369,42.193H250.139
	c-37.267,0-72.028-15.378-95.369-42.193c-20.927-24.04-30.106-54.124-25.85-84.712c1.932-13.882,5.712-27.5,11.236-40.475
	c0.662-1.554,0.808-3.28,0.416-4.923c-7.813-32.731-12.677-66.349-14.456-99.919c-0.486-9.178,3.31-17.785,10.416-23.614
	c5.204-4.269,11.522-6.506,18.03-6.506c2.356,0,4.736,0.294,7.097,0.889l0.077,0.02c31.822,8.113,63.147,19.137,93.105,32.765
	c1.661,0.755,3.533,0.911,5.299,0.442c16.542-4.408,33.702-6.644,51.006-6.644s34.465,2.236,51.005,6.645
	c1.763,0.469,3.637,0.315,5.299-0.442c29.959-13.629,61.284-24.653,93.105-32.766l0.077-0.02c8.881-2.242,18.038-0.198,25.127,5.617
	C492.867,44.533,496.663,53.14,496.177,62.319z M398.025,187.233v-12.576c0-4.358-3.532-7.891-7.891-7.891s-7.891,3.533-7.891,7.891
	v12.576c0,4.358,3.532,7.891,7.891,7.891S398.025,191.59,398.025,187.233z M172.298,143.844c3.219,0,6.421-0.844,9.325-2.516
	c17.628-10.143,33.354-23.046,46.745-38.348c3.925-4.486,5.466-10.404,4.227-16.236c-1.239-5.831-5.054-10.61-10.465-13.112
	c-14.394-6.654-29.48-12.014-44.848-15.932c-7.525-1.917-15.278-0.194-21.284,4.73c-6.002,4.925-9.209,12.195-8.798,19.948
	c0.839,15.823,3.144,31.658,6.853,47.062c0.002,0.012,0.005,0.022,0.007,0.034c1.396,5.796,5.338,10.471,10.814,12.826
	C167.272,143.332,169.791,143.844,172.298,143.844z M166.007,74.631c2.081-1.706,4.767-2.302,7.378-1.638
	c14.43,3.679,28.602,8.713,42.12,14.963c1.169,0.541,1.537,1.529,1.652,2.069c0.114,0.541,0.181,1.593-0.668,2.562
	c-12.243,13.992-26.622,25.789-42.739,35.063c-1.116,0.642-2.135,0.371-2.642,0.154c-0.505-0.218-1.396-0.767-1.702-2.005
	c-0.002-0.007-0.004-0.016-0.006-0.024c-3.487-14.478-5.655-29.359-6.443-44.232C162.816,78.856,163.927,76.338,166.007,74.631z
	 M436.397,276.713L401.48,249.3c-3.429-2.689-8.388-2.094-11.079,1.334c-2.691,3.428-2.094,8.388,1.333,11.08l34.918,27.413
	c1.446,1.134,3.163,1.684,4.868,1.684c2.34,0,4.655-1.035,6.211-3.018C440.421,284.365,439.825,279.405,436.397,276.713z
	 M224.521,230.276c-0.523-4.326-4.444-7.413-8.781-6.887l-44.073,5.324c-4.326,0.523-7.41,4.453-6.888,8.78
	c0.484,4.005,3.889,6.946,7.824,6.946c0.316,0,0.635-0.019,0.956-0.058l44.073-5.324
	C221.96,238.534,225.043,234.604,224.521,230.276z M232.157,166.767c-4.359,0-7.891,3.533-7.891,7.891v12.576
	c0,4.358,3.532,7.891,7.891,7.891s7.891-3.533,7.891-7.891v-12.576C240.048,170.299,236.516,166.767,232.157,166.767z
	 M220.814,249.3l-34.918,27.413c-3.429,2.691-4.025,7.652-1.334,11.08c1.556,1.983,3.873,3.018,6.212,3.018
	c1.704,0,3.422-0.55,4.867-1.684l34.918-27.413c3.429-2.691,4.025-7.651,1.334-11.08C229.202,247.207,224.241,246.609,220.814,249.3
	z"/>
<g>
</g>
<g>
</g>
<g>
</g>
<g>
</g>
<g>
</g>
<g>
</g>
<g>
</g>
<g>
</g>
<g>
</g>
<g>
</g>
<g>
</g>
<g>
</g>
<g>
</g>
<g>
</g>
<g>
</g>
</svg>
